 <svg version="1.0" xmlns="http://www.w3.org/2000/svg" width="700.000000pt" height="127.000000pt" viewBox="0 0 700.000000 127.000000" preserveAspectRatio="xMidYMid meet">
<metadata>
Created by potrace 1.12, written by Peter Selinger 2001-2015
</metadata>
<g transform="translate(0.000000,127.000000) scale(0.100000,-0.100000)" fill="#000000" stroke="none">
<path d="M4247 1033 c3 -10 12 -25 18 -33 7 -8 41 -69 75 -135 34 -66 66 -124
71 -130 17 -18 9 -57 -21 -100 -16 -24 -30 -46 -30 -49 0 -3 -29 -54 -65 -112
-36 -59 -65 -110 -65 -115 0 -5 51 -9 114 -9 l114 0 12 33 c14 36 17 45 56
137 15 36 30 68 34 73 8 9 46 -74 90 -193 l16 -45 122 -3 121 -3 -46 78 c-25
43 -67 114 -93 158 -66 111 -66 114 -31 182 37 70 90 164 101 178 15 19 50 86
50 96 0 6 -40 9 -106 7 -115 -3 -108 0 -137 -68 -64 -151 -82 -178 -92 -138
-3 13 -21 64 -40 113 l-34 90 -120 3 c-112 2 -120 1 -114 -15z"></path>
<path d="M346 994 c-3 -9 -6 -18 -6 -20 0 -2 29 -4 65 -4 74 0 127 -21 146
-57 17 -32 15 -90 -5 -112 -20 -22 -20 -30 0 -52 21 -23 20 -90 -1 -123 -17
-25 -17 -27 0 -46 12 -13 31 -20 55 -20 101 0 200 -103 200 -206 0 -20 5 -24
29 -24 35 0 59 21 67 58 3 15 9 45 14 67 5 22 26 117 45 210 20 94 40 188 45
210 19 84 21 97 15 116 -6 18 -20 19 -335 19 -290 0 -329 -2 -334 -16z"></path>
<path d="M1660 670 l0 -320 90 0 89 0 3 113 c3 105 4 112 24 115 40 6 78 -63
120 -215 4 -14 204 -19 204 -5 0 4 -17 50 -39 102 -28 69 -50 106 -81 137
l-42 41 36 17 c73 35 104 98 93 193 -4 36 -12 53 -40 78 -54 50 -120 64 -301
64 l-156 0 0 -320z m299 159 c35 -57 -7 -123 -76 -117 l-38 3 -3 59 c-4 80 -1
86 53 86 40 0 48 -4 64 -31z"></path>
<path d="M4000 670 l0 -320 80 0 80 0 0 320 0 320 -80 0 -80 0 0 -320z"></path>
<path d="M4980 940 c-8 -5 -12 -33 -12 -71 l0 -64 113 -3 c63 -1 120 -4 127
-7 13 -5 -35 -69 -122 -165 -18 -19 -55 -65 -84 -101 -49 -62 -52 -70 -52
-123 l0 -56 245 0 245 0 0 70 0 70 -123 0 c-68 0 -127 3 -130 6 -9 9 17 45
140 196 l103 127 0 59 c0 58 -1 60 -29 65 -42 9 -407 6 -421 -3z"></path>
<path d="M234 875 c-12 -47 7 -55 131 -55 124 0 143 8 131 55 l-6 25 -125 0
-125 0 -6 -25z"></path>
<path d="M1051 816 c-5 -13 -15 -50 -21 -82 -14 -67 -26 -125 -39 -186 -5 -24
-15 -76 -22 -117 -12 -69 -12 -74 6 -87 29 -21 39 -13 50 43 14 70 54 126 109
151 83 40 172 24 232 -40 40 -42 54 -69 54 -104 0 -60 19 -10 51 135 24 111
-35 230 -141 283 -50 25 -65 28 -163 28 -104 0 -108 -1 -116 -24z"></path>
<path d="M3276 795 c-56 -16 -63 -21 -68 -55 -2 -16 -11 -26 -27 -30 -20 -5
-24 -12 -25 -49 -1 -39 2 -45 27 -53 26 -10 27 -13 28 -81 2 -104 9 -128 48
-154 26 -17 48 -23 92 -23 l58 0 7 35 c8 47 1 63 -33 67 -26 3 -29 7 -34 53
-8 74 1 99 38 103 29 3 30 5 28 50 -1 45 -3 47 -33 50 -34 3 -46 24 -40 71 4
30 -5 32 -66 16z"></path>
<path d="M3560 775 l-45 -12 -3 -52 -3 -52 28 7 c15 4 36 11 45 15 47 24 183
-2 153 -29 -12 -10 -106 -32 -141 -32 -54 0 -109 -48 -124 -109 -21 -88 36
-161 126 -161 43 0 108 22 119 40 9 15 25 2 25 -21 0 -17 7 -19 81 -19 l81 0
-4 163 c-4 198 -14 224 -91 256 -57 24 -171 27 -247 6z m180 -250 c0 -41 -32
-75 -70 -75 -34 0 -50 17 -50 52 0 32 37 57 88 58 30 0 32 -2 32 -35z"></path>
<path d="M2364 750 c-73 -32 -124 -118 -124 -209 0 -37 35 -120 58 -137 9 -8
36 -23 59 -34 50 -23 160 -27 223 -8 38 12 40 15 40 54 l0 40 -83 -4 c-79 -4
-83 -3 -109 23 -15 15 -25 31 -22 36 3 5 61 9 130 9 l124 0 0 55 c0 32 -7 70
-16 88 -22 44 -64 87 -85 87 -10 0 -21 5 -24 10 -10 17 -126 10 -171 -10z
m142 -105 c22 -34 11 -45 -46 -45 -57 0 -67 10 -44 45 22 34 68 34 90 0z"></path>
<path d="M5640 756 c-56 -18 -113 -82 -128 -143 -33 -146 65 -263 220 -263
153 1 233 63 245 192 7 84 -14 132 -83 188 -48 39 -174 51 -254 26z m159 -132
c25 -31 27 -74 6 -113 -39 -76 -135 -41 -135 49 0 52 32 90 75 90 24 0 39 -7
54 -26z"></path>
<path d="M6060 560 l0 -210 85 0 85 0 0 133 c0 117 2 136 18 150 24 22 55 21
75 -1 14 -15 17 -42 17 -150 l0 -132 83 0 82 0 -1 157 c-2 153 -10 201 -37
226 -48 45 -115 49 -181 12 -25 -14 -47 -25 -50 -25 -3 0 -6 11 -6 25 0 25 -1
25 -85 25 l-85 0 0 -210z"></path>
<path d="M182 718 c-7 -7 -12 -19 -12 -28 0 -35 21 -40 172 -40 l148 0 6 25
c12 49 -5 55 -160 55 -97 0 -146 -4 -154 -12z"></path>
<path d="M2730 530 l0 -180 65 0 65 0 0 108 c1 117 10 142 52 142 42 0 48 -16
48 -137 l0 -113 68 0 67 0 -3 147 c-4 160 -7 170 -64 199 -46 24 -74 18 -138
-29 l-25 -19 -5 29 c-5 27 -8 28 -68 31 l-62 3 0 -181z"></path>
<path d="M6639 617 c-65 -44 -85 -125 -49 -197 26 -50 67 -70 146 -70 69 0 97
17 92 54 -3 19 -10 21 -70 24 -68 3 -98 22 -34 22 18 0 54 3 80 6 46 7 46 7
46 45 0 91 -46 139 -133 139 -29 0 -55 -8 -78 -23z m113 -63 c14 -30 -2 -46
-42 -42 -28 3 -38 31 -20 53 19 23 49 18 62 -11z"></path>
<path d="M124 539 c-14 -15 -16 -24 -8 -37 10 -15 35 -17 192 -20 l182 -2 6
25 c13 50 -3 55 -186 55 -156 0 -168 -1 -186 -21z"></path>
<path d="M555 493 c-35 -9 -66 -36 -86 -74 -24 -48 -24 -70 1 -120 68 -133
260 -89 260 59 0 97 -80 159 -175 135z"></path>
<path d="M1183 493 c-35 -7 -80 -56 -92 -100 -43 -158 184 -245 253 -98 31 64
9 149 -46 184 -21 13 -85 21 -115 14z"></path>
<path d="M237 403 c-14 -14 -6 -53 13 -63 11 -6 46 -10 78 -8 l57 3 3 38 3 37
-74 0 c-40 0 -77 -3 -80 -7z"></path>
</g>
</svg>